<svg fill="none" version="1.0" xmlns="http://www.w3.org/2000/svg" xmlns:xlink="http://www.w3.org/1999/xlink" width="100%" height="100%" viewBox="0 0 340 230" preserveAspectRatio="xMidYMid meet">
  <circle cx="50%" cy="50%" r="38%" fill="#feffff" fill-opacity="1" class="background"></circle>
	<g data-v-0dd9719b="" fill="#333" class="iconlinesvg-g iconlinesvg" transform="translate(78.62673187721794,101.42646026611328)">
    <rect fill="#333" fill-opacity="0" stroke-width="2" x="0" y="0" width="51.705257860642725" height="47.14707832790123" class="image-rect"></rect>

		<svg x="0" y="0" width="51.705257860642725" height="47.14707832790123" filtersec="colorsb7642766500" class="image-svg-svg primary" style="overflow: visible;">
			<svg xmlns="http://www.w3.org/2000/svg" viewBox="-0.07248137891292572 -0.09396444261074066 82.67987060546875 75.39073181152344">
				<title>资源 218</title>
				<path d="M41.51 34c.26-1.57 1.33-2.75 2.08-4.06C48 22.32 52.39 14.7 56.81 7.08a13.76 13.76 0 0 1 25.76 7.68 14.35 14.35 0 0 1-2.11 6.46Q77 27.13 73.63 33.1A1.59 1.59 0 0 1 72 34H43.62c-.71 0-1.42 0-2.13.06z" fill="#f05a25"></path>
				<path d="M25.15 61.08c-2.23-3.88-4.36-7.63-6.55-11.35-3.37-5.75-6.67-11.55-10-17.3-2.35-3.94-4.6-7.91-6.86-11.9A13.79 13.79 0 0 1 24.42 5a3.89 3.89 0 0 1 1 2.65v52a2.26 2.26 0 0 1-.27 1.43z" fill="#b91f3f"></path>
				<path d="M41.49 34c1.16 2.57 2.71 4.91 4.1 7.35 2.54 4.5 5.17 9 7.74 13.43a13.61 13.61 0 0 1-3.75 17.62c-4.82 3.6-10 3.74-15.22 1-2.77-1.44-4.52-4-6-6.69-.8-1.48-1.67-2.93-2.53-4.38a1.5 1.5 0 0 1 0-1.74q7.52-12.91 15-25.86a1.53 1.53 0 0 1 .69-.71z" fill="#fbbc10"></path>
			</svg>
		</svg>
      <g transform="translate(55, 3.1712940750825105)">
        <g data-gra="path-name" fill="#333" transform="scale(1)">
          <path d="M16.61 0Q15.15 0 14.59-1.46L14.59-1.46L1.96-37.55L1.85-38.17Q1.85-38.62 2.22-38.95Q2.58-39.29 3.03-39.29L3.03-39.29L5.72-39.29Q6.34-39.29 6.71-38.98Q7.07-38.67 7.18-38.28L7.18-38.28L18.30-6.17L29.47-38.28Q29.58-38.67 29.94-38.98Q30.31-39.29 30.93-39.29L30.93-39.29L33.62-39.29Q34.07-39.29 34.41-38.95Q34.74-38.62 34.74-38.17L34.74-38.17Q34.74-37.77 34.69-37.55L34.69-37.55L22.06-1.46Q21.50 0 20.04 0L20.04 0L16.61 0Z" transform="translate(-1.852198316183349, 40.24321796071095)"></path>
        </g>
      </g>
      <g transform="translate(91, 3.1712940750825105)">
        <g data-gra="path-name" fill="#333" transform="scale(1)">
          <path d="M5.05-34.69Q4.49-34.69 4.13-35.05Q3.76-35.42 3.76-35.98L3.76-35.98L3.76-38.90Q3.76-39.46 4.13-39.85Q4.49-40.24 5.05-40.24L5.05-40.24L8.36-40.24Q8.92-40.24 9.32-39.85Q9.71-39.46 9.71-38.90L9.71-38.90L9.71-35.98Q9.71-35.42 9.32-35.05Q8.92-34.69 8.36-34.69L8.36-34.69L5.05-34.69ZM5.50 0Q4.94 0 4.57-0.36Q4.21-0.73 4.21-1.29L4.21-1.29L4.21-27.90Q4.21-28.46 4.57-28.82Q4.94-29.19 5.50-29.19L5.50-29.19L7.97-29.19Q8.53-29.19 8.90-28.82Q9.26-28.46 9.26-27.90L9.26-27.90L9.26-1.29Q9.26-0.73 8.90-0.36Q8.53 0 7.97 0L7.97 0L5.50 0Z" transform="translate(-3.7605238540692243, 40.24321796071095)"></path>
        </g>
      </g>
      <g transform="translate(100, 3.1712940750825105)">
        <g data-gra="path-name" fill="#333" transform="scale(1)">
          <path d="M18.47 0.56Q12.40 0.56 9.20-3.70L9.20-3.70L9.20-1.29Q9.20-0.73 8.84-0.36Q8.48 0 7.91 0L7.91 0L5.56 0Q5.00 0 4.63-0.36Q4.27-0.73 4.27-1.29L4.27-1.29L4.27-38.56Q4.27-39.18 4.63-39.51Q5.00-39.85 5.56-39.85L5.56-39.85L8.08-39.85Q8.64-39.85 9.01-39.49Q9.37-39.12 9.37-38.56L9.37-38.56L9.37-25.59Q12.52-29.75 18.47-29.75L18.47-29.75Q24.36-29.75 27.31-25.90Q30.25-22.06 30.42-16.28L30.42-16.28Q30.48-15.66 30.48-14.59L30.48-14.59Q30.48-13.53 30.42-12.91L30.42-12.91Q30.25-7.13 27.31-3.28Q24.36 0.56 18.47 0.56L18.47 0.56ZM17.40-3.82Q21.44-3.82 23.29-6.34Q25.14-8.87 25.31-12.97L25.31-12.97Q25.37-13.53 25.37-14.59L25.37-14.59Q25.37-25.37 17.40-25.37L17.40-25.37Q13.58-25.37 11.53-22.87Q9.49-20.37 9.37-16.95L9.37-16.95Q9.32-16.33 9.32-14.76L9.32-14.76Q9.32-13.25 9.37-12.63L9.37-12.63Q9.49-9.04 11.48-6.43Q13.47-3.82 17.40-3.82L17.40-3.82Z" transform="translate(-4.265668849391956, 40.24321796071095)"></path>
        </g>
      </g>
      <g transform="translate(130, 3.1712940750825105)">
        <g data-gra="path-name" fill="#333" transform="scale(1)">
          <path d="M15.77 0.56Q10.05 0.56 6.62-3.00Q3.20-6.57 2.86-12.74L2.86-12.74L2.81-14.65L2.86-16.50Q3.20-22.56 6.62-26.16Q10.05-29.75 15.77-29.75L15.77-29.75Q21.95-29.75 25.34-25.82Q28.74-21.89 28.74-15.15L28.74-15.15L28.74-14.14Q28.74-13.58 28.37-13.22Q28.01-12.85 27.45-12.85L27.45-12.85L7.97-12.85L7.97-12.35Q8.14-8.70 10.22-6.12Q12.29-3.54 15.72-3.54L15.72-3.54Q18.35-3.54 20.01-4.57Q21.67-5.61 22.51-6.74L22.51-6.74Q23.01-7.41 23.29-7.55Q23.57-7.69 24.25-7.69L24.25-7.69L26.72-7.69Q27.22-7.69 27.59-7.41Q27.95-7.13 27.95-6.68L27.95-6.68Q27.95-5.44 26.44-3.70Q24.92-1.96 22.14-0.70Q19.36 0.56 15.77 0.56L15.77 0.56ZM7.97-16.67L23.63-16.67L23.63-16.84Q23.63-20.77 21.50-23.24Q19.36-25.71 15.77-25.71L15.77-25.71Q12.12-25.71 10.05-23.24Q7.97-20.77 7.97-16.84L7.97-16.84L7.97-16.67Z" transform="translate(-2.806361085126287, 40.24321796071095)"></path>
        </g>
      </g>
      <g transform="translate(159, 3.1712940750825105)">
        <g data-gra="path-name" fill="#333" transform="scale(1)">
          <path d="M14.20 0.56Q10.33 0.56 7.66-0.70Q5.00-1.96 3.70-3.59Q2.41-5.22 2.41-6.29L2.41-6.29Q2.41-6.85 2.81-7.16Q3.20-7.46 3.65-7.46L3.65-7.46L6.01-7.46Q6.34-7.46 6.54-7.35Q6.74-7.24 7.07-6.85L7.07-6.85Q8.36-5.28 9.96-4.38Q11.56-3.48 14.26-3.48L14.26-3.48Q17.29-3.48 19.11-4.60Q20.94-5.72 20.94-7.86L20.94-7.86Q20.94-9.26 20.15-10.10Q19.36-10.94 17.54-11.62Q15.72-12.29 12.12-13.08L12.12-13.08Q7.24-14.14 5.22-16.16Q3.20-18.19 3.20-21.38L3.20-21.38Q3.20-23.46 4.43-25.40Q5.67-27.33 8.11-28.54Q10.55-29.75 13.92-29.75L13.92-29.75Q17.46-29.75 19.95-28.57Q22.45-27.39 23.71-25.82Q24.98-24.25 24.98-23.18L24.98-23.18Q24.98-22.68 24.61-22.34Q24.25-22.00 23.74-22.00L23.74-22.00L21.61-22.00Q20.82-22.00 20.49-22.62L20.49-22.62Q19.53-23.69 18.89-24.28Q18.24-24.86 17.01-25.29Q15.77-25.71 13.92-25.71L13.92-25.71Q11.17-25.71 9.71-24.56Q8.25-23.41 8.25-21.50L8.25-21.50Q8.25-20.32 8.87-19.50Q9.49-18.69 11.23-17.99Q12.97-17.29 16.39-16.56L16.39-16.56Q21.72-15.43 23.94-13.36Q26.16-11.28 26.16-8.03L26.16-8.03Q26.16-5.61 24.78-3.65Q23.41-1.68 20.68-0.56Q17.96 0.56 14.20 0.56L14.20 0.56Z" transform="translate(-2.413470533208607, 40.24321796071095)"></path>
        </g>
      </g>
    </g>
  </g>
</svg>
