<svg data-v-0dd9719b="" version="1.0" xmlns="http://www.w3.org/2000/svg" xmlns:xlink="http://www.w3.org/1999/xlink" width="100%" height="100%" viewBox="0 0 340.000000 250.000000" preserveAspectRatio="xMidYMid meet" color-interpolation-filters="sRGB" style="margin: auto;">
  <rect data-v-0dd9719b="" x="0" y="0" width="100%" height="100%" fill="transparent" fill-opacity="1" class="background"></rect>
  <rect data-v-0dd9719b="" x="0" y="0" width="100%" height="100%" fill="url(#watermark)" fill-opacity="1" class="watermarklayer"></rect>
  <g data-v-0dd9719b="" fill="#f8981c" class="icon-text-wrapper icon-svg-group iconsvg" transform="translate(81.52500146627426,66.5202522277832)">
    <g class="iconsvg-imagesvg" transform="translate(58.47499656677246,0)">
      <g>
        <rect fill="#333" fill-opacity="0" stroke-width="2" x="0" y="0" width="59.99999999999999" height="69.63949952413007" class="image-rect"></rect>
        <svg x="0" y="0" width="59.99999999999999" height="69.63949952413007" filtersec="colorsb7859503591" class="image-svg-svg primary" style="overflow: visible;">
          <svg xmlns="http://www.w3.org/2000/svg" viewBox="-0.012591682374477386 -0.0008466243743896484 89.4620361328125 103.83445739746094">
            <title>资源 136</title>
            <path d="M11.86 50a28.07 28.07 0 0 0 1.49 10.28c1 3 1.24 3 3.42.87L74.21 3.78c.71-.7 1.39-1.44 2.16-2.07 2.92-2.39 6.11-2.26 8.48.29 2.22 2.4 2 5.59-.6 8.23Q67.68 26.89 51 43.47L15.33 79.15C13.05 81.44 13 81.37 11 79A43.71 43.71 0 0 1 .05 51.69 42.67 42.67 0 0 1 9.93 22c8.73-10.69 20.22-16.08 33.9-16.51A39.24 39.24 0 0 1 60.65 8.7c1.43.62 1.82 1.31.57 2.53l-6 6c-1.24 1.3-2.63 1.06-4.16.77-11.52-2.11-21.71.57-30 9-6.14 6.26-9.52 13.8-9.2 23z" fill="#f8981c"></path>
            <path d="M89.42 50.54c.69 21.5-16.07 41.34-38.64 44.1a42.62 42.62 0 0 1-16.13-.88c-.86-.23-2-.21-2.32-1.2-.33-1.15 1-1.56 1.53-2.35 3.89-5.83 9.6-6.83 16.21-7.51 18.19-1.86 30.81-20 27.21-38-.14-.71-.09-1.68-.94-1.87s-1.4.76-2 1.32Q46.79 71.7 19.21 99.27c-.88.88-1.74 1.79-2.65 2.65-2.63 2.49-5.8 2.55-8.23.18a5.57 5.57 0 0 1-.11-8.26c4.76-4.9 9.69-9.63 14.53-14.45 3.95-3.93 7.87-7.88 11.81-11.82l15.87-15.91 13.39-13.41c4.59-4.6 9.19-9.17 13.73-13.81 1.64-1.67 2.66-.92 3.77.6 4.38 5.96 8.52 15.79 8.1 25.5z" fill="#00a0da"></path>
          </svg>
        </svg>
        <!---->
      </g>
    </g>
    <g transform="translate(0,76.63949584960938)">
      <g data-gra="path-name" fill-rule="" class="tp-name iconsvg-namesvg">
        <g transform="scale(1)">
          <g>
            <path d="M27.81-35.49L35.39-35.49 22.37 0 13.73 0 0.71-35.49 8.34-35.49 18.1-7.27 27.81-35.49ZM63.97-35.49L71.54-35.49 58.53 0 49.88 0 36.86-35.49 44.49-35.49 54.25-7.27 63.97-35.49ZM79.42-31.53Q77.54-31.53 76.3-32.72 75.05-33.92 75.05-35.69L75.05-35.69Q75.05-37.47 76.3-38.67 77.54-39.86 79.42-39.86L79.42-39.86Q81.31-39.86 82.55-38.67 83.8-37.47 83.8-35.69L83.8-35.69Q83.8-33.92 82.55-32.72 81.31-31.53 79.42-31.53L79.42-31.53ZM75.81-28.17L82.93-28.17 82.93 0 75.81 0 75.81-28.17ZM97.07-24.05Q98.44-26.08 100.86-27.36 103.27-28.63 106.37-28.63L106.37-28.63Q109.98-28.63 112.91-26.85 115.83-25.07 117.53-21.79 119.24-18.51 119.24-14.19L119.24-14.19Q119.24-9.86 117.53-6.53 115.83-3.2 112.91-1.37 109.98 0.46 106.37 0.46L106.37 0.46Q103.22 0.46 100.86-0.79 98.49-2.03 97.07-4.02L97.07-4.02 97.07 0 89.95 0 89.95-37.63 97.07-37.63 97.07-24.05ZM111.97-14.19Q111.97-16.73 110.92-18.58 109.88-20.44 108.18-21.41 106.47-22.37 104.49-22.37L104.49-22.37Q102.56-22.37 100.86-21.38 99.15-20.39 98.11-18.51 97.07-16.63 97.07-14.08L97.07-14.08Q97.07-11.54 98.11-9.66 99.15-7.78 100.86-6.79 102.56-5.8 104.49-5.8L104.49-5.8Q106.47-5.8 108.18-6.81 109.88-7.83 110.92-9.71 111.97-11.59 111.97-14.19L111.97-14.19ZM150.61-14.69Q150.61-13.17 150.41-11.95L150.41-11.95 129.81-11.95Q130.07-8.9 131.95-7.17 133.83-5.44 136.58-5.44L136.58-5.44Q140.54-5.44 142.22-8.85L142.22-8.85 149.9-8.85Q148.68-4.78 145.22-2.16 141.76 0.46 136.73 0.46L136.73 0.46Q132.66 0.46 129.43-1.35 126.2-3.15 124.4-6.46 122.59-9.76 122.59-14.08L122.59-14.08Q122.59-18.46 124.37-21.76 126.15-25.07 129.36-26.85 132.56-28.63 136.73-28.63L136.73-28.63Q140.75-28.63 143.92-26.9 147.1-25.17 148.86-21.99 150.61-18.81 150.61-14.69L150.61-14.69ZM129.86-16.73L143.24-16.73Q143.19-19.47 141.25-21.13 139.32-22.78 136.53-22.78L136.53-22.78Q133.88-22.78 132.08-21.18 130.27-19.58 129.86-16.73L129.86-16.73ZM166.58 0.46Q163.12 0.46 160.37-0.79 157.63-2.03 156.03-4.17 154.42-6.31 154.27-8.9L154.27-8.9 161.44-8.9Q161.64-7.27 163.04-6.2 164.44-5.14 166.53-5.14L166.53-5.14Q168.56-5.14 169.7-5.95 170.85-6.76 170.85-8.03L170.85-8.03Q170.85-9.41 169.45-10.09 168.05-10.78 165-11.59L165-11.59Q161.85-12.36 159.84-13.17 157.83-13.98 156.38-15.66 154.93-17.34 154.93-20.19L154.93-20.19Q154.93-22.53 156.28-24.46 157.63-26.39 160.14-27.51 162.66-28.63 166.07-28.63L166.07-28.63Q171.1-28.63 174.1-26.11 177.1-23.59 177.41-19.32L177.41-19.32 170.59-19.32Q170.44-21 169.19-21.99 167.95-22.98 165.86-22.98L165.86-22.98Q163.93-22.98 162.89-22.27 161.85-21.56 161.85-20.29L161.85-20.29Q161.85-18.86 163.27-18.13 164.69-17.39 167.69-16.63L167.69-16.63Q170.75-15.86 172.73-15.05 174.71-14.24 176.16-12.53 177.61-10.83 177.66-8.03L177.66-8.03Q177.66-5.59 176.31-3.66 174.97-1.73 172.45-0.64 169.93 0.46 166.58 0.46L166.58 0.46Z" transform="translate(-0.7099999785423279, 39.86000061035156)"></path>
          </g>
          <!---->
          <!---->
          <!---->
          <!---->
          <!---->
          <!---->
          <!---->
        </g>
      </g>
      <!---->
    </g>
  </g>
  <defs v-gra="od"></defs>
</svg>
