<?xml version="1.0" standalone="no"?>
<!DOCTYPE svg PUBLIC "-//W3C//DTD SVG 20010904//EN"
 "http://www.w3.org/TR/2001/REC-SVG-20010904/DTD/svg10.dtd">
<svg version="1.0" xmlns="http://www.w3.org/2000/svg"
 width="1120.000000pt" height="1120.000000pt" viewBox="0 0 1120.000000 1120.000000"
 preserveAspectRatio="xMidYMid meet">
<metadata>
Created by potrace 1.14, written by Peter Selinger 2001-2017
</metadata>
<g transform="translate(0.000000,1120.000000) scale(0.100000,-0.100000)"
fill="#000000" stroke="none">
<path d="M9330 11179 c-84 -25 -81 -24 -111 -37 -57 -23 -181 -107 -241 -162
-75 -70 -188 -185 -188 -191 0 -5 -4 -9 -8 -9 -4 0 -1381 -1372 -3060 -3048
-1679 -1677 -3094 -3089 -3145 -3138 -192 -186 -229 -193 -297 -53 -15 32 -27
59 -24 59 2 0 -5 20 -16 45 -11 25 -17 45 -13 45 3 0 1 6 -4 13 -6 6 -14 26
-18 42 -5 17 -9 32 -10 35 -1 3 -8 25 -15 50 -8 25 -15 50 -16 55 -1 6 -3 13
-4 18 -1 4 -4 12 -5 17 -1 6 -4 12 -5 15 -4 7 -5 15 -14 70 -4 28 -11 55 -14
60 -4 6 -8 19 -9 30 -2 11 -8 52 -14 90 -7 39 -13 81 -15 95 -1 14 -5 50 -9
80 -3 30 -8 84 -11 120 -5 82 -5 582 1 675 8 116 29 305 40 345 2 8 7 33 10
55 7 40 12 66 15 75 1 3 3 10 4 15 1 6 5 24 9 40 4 17 9 39 12 50 14 64 39
151 44 155 3 3 7 14 8 26 1 11 8 34 14 50 7 16 13 34 14 40 2 7 24 64 49 127
25 63 46 120 46 126 0 6 5 11 10 11 6 0 10 4 10 10 0 15 61 139 107 218 24 41
43 76 43 79 0 2 14 24 30 48 17 24 30 48 30 53 0 6 3 12 8 14 11 5 72 95 72
106 0 6 3 12 8 14 4 2 34 39 67 83 33 44 64 85 70 92 5 7 25 29 42 50 18 21
52 61 75 88 70 82 399 405 413 405 2 0 17 12 32 26 15 15 71 59 123 98 52 39
97 74 98 79 2 4 8 7 12 7 5 0 35 18 67 40 32 22 65 45 74 52 10 6 19 9 22 7 3
-2 16 5 29 17 37 33 235 141 251 136 4 -1 7 1 7 6 0 4 12 12 27 19 16 6 55 24
88 38 113 50 292 117 345 130 8 2 65 17 125 33 132 36 302 71 375 77 14 1 25
3 25 5 0 1 16 4 35 5 102 10 172 16 232 19 37 3 72 7 77 10 5 4 12 2 16 -4 4
-6 11 -7 17 -4 19 12 407 2 427 -10 6 -4 11 -2 11 4 0 6 5 8 11 4 7 -4 33 -9
58 -10 25 -2 62 -6 81 -10 19 -3 55 -7 80 -10 25 -2 72 -9 105 -15 310 -55
367 -57 461 -15 54 24 102 68 428 395 203 202 376 381 386 397 10 16 21 45 24
64 4 31 0 39 -37 75 -26 25 -73 53 -122 73 -44 19 -93 40 -110 47 -16 7 -59
23 -95 35 -36 11 -74 25 -85 30 -40 18 -179 60 -183 55 -3 -3 -10 -1 -16 4
-10 8 -71 27 -116 36 -8 2 -27 8 -41 13 -15 6 -29 9 -32 6 -2 -2 -15 0 -29 5
-14 5 -38 12 -54 14 -29 6 -116 22 -164 32 -14 3 -41 7 -60 10 -19 3 -44 7
-55 9 -11 2 -49 7 -85 11 -36 4 -74 9 -85 11 -73 14 -707 29 -728 17 -5 -3
-41 -7 -80 -9 -102 -4 -201 -13 -239 -19 -18 -4 -58 -8 -88 -10 -30 -2 -62 -5
-70 -8 -13 -4 -95 -19 -191 -33 -30 -5 -68 -12 -149 -30 -14 -2 -33 -7 -42
-10 -10 -3 -30 -7 -45 -10 -16 -2 -39 -7 -53 -11 -14 -3 -29 -7 -35 -8 -63
-14 -239 -66 -355 -106 -214 -72 -245 -83 -248 -91 -2 -5 -10 -8 -18 -8 -7 0
-39 -12 -71 -27 -32 -14 -64 -26 -70 -26 -7 0 -13 -4 -13 -9 0 -4 -9 -8 -20
-8 -11 0 -20 -4 -20 -10 0 -5 -5 -10 -11 -10 -15 0 -223 -103 -227 -112 -2 -4
-11 -8 -21 -8 -9 0 -27 -9 -40 -21 -12 -12 -28 -22 -35 -23 -7 -1 -24 -9 -37
-17 -13 -9 -32 -18 -41 -22 -10 -3 -18 -11 -18 -17 0 -5 -6 -10 -13 -10 -19 0
-357 -225 -365 -242 -2 -5 -8 -8 -13 -8 -5 0 -18 -8 -28 -17 -11 -10 -26 -23
-33 -28 -52 -40 -105 -81 -114 -90 -7 -5 -35 -30 -64 -55 -111 -95 -158 -139
-285 -265 -162 -162 -251 -260 -320 -351 -19 -25 -35 -43 -35 -39 0 8 -114
-138 -187 -240 -31 -44 -60 -82 -63 -85 -8 -7 -110 -160 -110 -165 0 -2 -13
-24 -30 -48 -16 -25 -30 -49 -30 -55 0 -6 -4 -12 -8 -14 -5 -1 -24 -30 -42
-63 -42 -74 -211 -410 -227 -450 -6 -17 -30 -74 -52 -127 -22 -54 -37 -98 -34
-98 3 0 1 -6 -4 -12 -5 -7 -17 -35 -27 -63 -10 -27 -20 -57 -23 -65 -8 -19
-11 -30 -17 -58 -3 -12 -8 -27 -11 -32 -5 -8 -40 -126 -49 -165 -2 -5 -8 -30
-15 -55 -7 -25 -15 -56 -18 -69 -2 -14 -6 -28 -8 -31 -2 -4 -7 -22 -10 -41 -9
-46 -13 -64 -15 -64 -1 0 -3 -9 -4 -20 -4 -25 -14 -82 -21 -115 -3 -14 -7 -38
-10 -55 -2 -16 -7 -46 -10 -65 -3 -19 -7 -48 -10 -65 -3 -16 -7 -55 -10 -85
-4 -30 -8 -68 -11 -85 -25 -170 -25 -839 0 -975 2 -14 7 -54 10 -90 9 -97 16
-152 22 -180 9 -37 12 -59 18 -113 3 -27 8 -52 11 -56 2 -5 7 -23 9 -42 3 -19
8 -45 11 -59 3 -14 9 -38 12 -55 7 -44 61 -249 73 -280 6 -15 8 -30 5 -35 -3
-5 -1 -10 4 -12 6 -1 12 -14 14 -28 2 -14 7 -33 11 -42 4 -9 9 -22 10 -30 2
-7 6 -20 9 -28 3 -8 13 -37 22 -65 32 -98 114 -302 168 -415 17 -36 31 -67 32
-70 5 -18 51 -106 57 -108 5 -2 8 -12 8 -22 0 -10 3 -20 8 -22 4 -1 20 -28 35
-58 31 -62 43 -83 107 -189 63 -105 80 -132 118 -185 17 -26 32 -51 32 -56 0
-4 4 -10 8 -12 4 -1 37 -43 72 -93 72 -101 72 -100 103 -136 12 -14 33 -40 47
-59 23 -31 69 -85 115 -136 11 -12 38 -44 60 -70 123 -146 170 -166 257 -109
24 16 1134 1119 2468 2452 1334 1333 2846 2844 3360 3358 514 513 983 982
1043 1042 59 59 113 113 120 119 29 28 644 653 668 680 29 33 112 169 109 179
-1 3 5 16 13 28 50 78 56 301 10 407 -3 8 -5 18 -5 23 1 4 -2 7 -8 7 -6 0 -9
3 -8 8 5 15 -73 130 -127 184 -48 49 -175 143 -194 143 -3 0 -10 3 -16 6 -10
6 -76 29 -105 37 -8 2 -58 5 -110 7 -72 2 -110 -1 -160 -16z"/>
<path d="M9300 8663 c-40 -13 -86 -37 -93 -49 -4 -8 -12 -14 -16 -14 -5 0 -58
-50 -117 -111 -60 -61 -799 -803 -1641 -1647 -843 -845 -1533 -1540 -1533
-1544 0 -4 -3 -8 -8 -8 -4 0 -177 -170 -384 -377 -1355 -1357 -2506 -2507
-3145 -3141 -406 -403 -751 -751 -768 -775 -83 -117 -119 -229 -115 -362 2
-109 12 -166 33 -192 5 -7 6 -13 3 -13 -4 0 10 -33 31 -73 27 -51 62 -97 126
-159 48 -49 94 -88 102 -88 8 0 15 -4 15 -8 0 -14 110 -64 180 -83 66 -17 202
-19 265 -4 17 4 36 8 43 8 6 0 12 4 12 9 0 4 6 8 14 8 14 0 147 67 156 78 3 4
23 20 45 37 22 16 1472 1461 3223 3211 1751 1751 3194 3190 3207 3198 40 26
97 21 127 -11 29 -31 36 -51 48 -127 5 -28 11 -62 13 -76 6 -25 12 -62 22
-135 3 -22 8 -56 11 -75 7 -39 12 -92 18 -192 2 -37 7 -72 11 -78 3 -5 2 -10
-4 -10 -6 0 -8 -9 -3 -22 15 -45 -2 -473 -23 -573 -3 -16 -8 -43 -10 -60 -8
-69 -19 -126 -51 -264 -35 -151 -41 -176 -44 -176 -1 0 -3 -9 -5 -20 -6 -41
-102 -316 -142 -405 -32 -71 -165 -337 -193 -385 -17 -27 -33 -57 -37 -65 -4
-8 -11 -19 -15 -25 -5 -5 -33 -48 -64 -94 -52 -81 -122 -181 -134 -191 -3 -3
-18 -23 -35 -45 -29 -39 -71 -89 -107 -127 -10 -10 -18 -21 -18 -24 0 -11
-291 -296 -345 -339 -27 -22 -56 -46 -64 -54 -8 -7 -49 -39 -90 -70 -42 -31
-79 -60 -83 -66 -5 -7 -8 -7 -8 0 0 6 -4 5 -8 -1 -6 -10 -76 -56 -227 -151
-25 -16 -69 -39 -165 -88 -41 -21 -77 -41 -80 -44 -3 -3 -10 -7 -16 -8 -10 -2
-48 -18 -159 -68 -64 -29 -395 -135 -435 -140 -8 -1 -24 -4 -35 -8 -11 -3 -36
-9 -55 -13 -19 -3 -39 -7 -45 -8 -44 -10 -75 -16 -105 -20 -19 -2 -57 -8 -85
-11 -27 -4 -61 -9 -75 -11 -14 -2 -50 -6 -80 -9 -30 -3 -68 -7 -85 -10 -86
-12 -154 -19 -187 -19 -21 -1 -38 -3 -38 -6 0 -3 -12 -7 -27 -8 -16 -1 -39 -4
-53 -7 -14 -3 -43 -8 -65 -11 -22 -3 -47 -8 -55 -11 -19 -7 -58 -14 -87 -16
-13 0 -23 -5 -23 -10 0 -4 -4 -6 -9 -3 -5 3 -27 -1 -50 -9 -23 -8 -44 -14 -46
-14 -14 1 -129 -35 -196 -61 -42 -17 -81 -30 -87 -30 -7 0 -12 -5 -12 -12 0
-6 -3 -9 -6 -5 -8 8 -243 -119 -264 -142 -3 -4 -32 -26 -65 -50 -100 -73 -289
-276 -333 -356 -10 -18 -63 -73 -137 -142 -54 -50 -63 -98 -32 -163 25 -51
101 -83 252 -106 17 -3 44 -9 61 -15 17 -5 44 -12 60 -14 35 -5 69 -13 69 -15
0 -1 16 -4 35 -6 19 -3 55 -9 80 -14 79 -16 223 -37 305 -44 33 -3 92 -9 130
-13 154 -16 690 -8 850 13 54 6 129 16 165 19 19 2 44 6 56 9 12 2 45 7 75 11
30 3 61 8 69 10 8 2 29 7 45 9 29 5 106 20 153 30 13 3 33 8 45 12 12 4 31 8
42 9 11 0 36 6 55 13 19 6 46 13 60 16 41 6 333 97 400 123 8 3 20 7 25 8 6 2
31 12 55 23 25 11 56 23 70 27 14 4 52 20 85 35 138 63 160 73 165 75 3 1 22
9 42 18 21 10 42 17 48 17 5 0 10 4 10 8 0 5 19 17 43 28 43 19 165 85 227
123 19 11 46 26 60 33 14 7 30 16 35 21 6 4 53 35 105 69 52 33 97 65 98 69 2
5 8 9 13 9 8 0 137 90 165 115 6 6 22 17 34 25 13 8 31 24 41 34 11 11 19 17
19 13 0 -3 17 10 38 29 20 19 58 51 85 71 26 21 47 41 47 45 0 4 4 8 9 8 11 0
132 113 265 247 107 107 177 185 274 302 21 24 42 49 47 55 6 6 37 47 70 91
33 44 62 82 65 85 3 3 23 32 45 65 22 33 43 62 46 65 3 3 23 32 44 65 21 33
43 63 49 67 6 4 7 8 3 8 -5 0 2 15 15 32 27 38 40 59 64 108 10 19 21 37 25
40 4 3 30 50 58 105 29 55 57 104 62 110 5 5 9 15 9 23 0 8 8 26 18 40 10 15
26 45 34 67 9 22 27 65 40 95 14 30 35 80 48 110 13 30 29 70 37 88 27 63 51
140 46 146 -4 3 -1 6 5 6 7 0 12 6 12 14 0 8 13 54 29 103 26 76 49 154 57
188 1 6 12 46 24 90 12 44 23 94 26 110 4 30 6 39 23 107 5 20 6 39 4 42 -3 2
-1 10 3 17 4 7 9 25 10 39 2 14 6 43 9 65 4 22 8 51 10 65 1 14 6 45 9 70 25
171 31 311 31 685 0 331 -6 488 -21 580 -3 17 -7 44 -8 60 -3 30 -13 91 -23
150 -3 17 -6 39 -8 50 -1 11 -3 20 -5 20 -1 0 -4 16 -7 35 -7 54 -61 273 -95
390 -17 58 -31 111 -31 118 0 6 -4 12 -9 12 -4 0 -8 11 -8 24 0 14 -4 28 -10
31 -5 3 -10 16 -10 29 0 12 -3 26 -7 30 -4 3 -8 14 -9 23 -2 10 -7 26 -12 38
-6 11 -18 40 -27 65 -16 43 -72 180 -100 245 -7 17 -34 74 -59 127 -26 54 -46
101 -45 104 0 4 -3 10 -8 13 -5 3 -23 33 -39 66 -43 84 -79 146 -141 247 -29
47 -53 91 -53 96 0 6 -4 12 -8 14 -4 2 -32 39 -62 83 -30 44 -57 82 -60 85 -3
3 -18 22 -33 43 -72 96 -166 150 -227 130z"/>
</g>
</svg>
